<mxfile host="app.diagrams.net" modified="2024-05-10T09:01:43.115Z" agent="Mozilla/5.0 (X11; Linux x86_64) AppleWebKit/537.36 (KHTML, like Gecko) Chrome/118.0.0.0 Safari/537.36" version="24.3.1" etag="aOHE0YeX2kW_RswQjY0L" type="github">
  <diagram name="Page-1" id="l0rQaMWkcXzWaYh5zXX5">
    <mxGraphModel>
      <root>
        <mxCell id="0" />
        <mxCell id="1" parent="0" />
      </root>
    </mxGraphModel>
  </diagram>
</mxfile>
